<?xml version="1.0" encoding="UTF-8"?>
<svg version="1.1" xmlns="http://www.w3.org/2000/svg" width="32" height="32">
<path d="M0 0 C3.63 0 7.26 0 11 0 C11 0.66 11 1.32 11 2 C6.545 2.495 6.545 2.495 2 3 C2.99 3 3.98 3 5 3 C10 3 15 3 20 3 C20 3.66 20 4.32 20 5 C19.01 5.33 18.02 5.66 17 6 C17.12375 7.794375 17.12375 7.794375 17.25 9.625 C17.25 14.10407241 15.94720046 16.56159946 13 20 C10.0450046 21.83907941 7.83257561 22.25110089 4.375 22.1875 C3.59898438 22.18105469 2.82296875 22.17460937 2.0234375 22.16796875 C0 22 0 22 -2 21 C-2 20.34 -2 19.68 -2 19 C-5.3 18.67 -8.6 18.34 -12 18 C-12 17.01 -12 16.02 -12 15 C-10.68 14.67 -9.36 14.34 -8 14 C-8.103125 12.948125 -8.20625 11.89625 -8.3125 10.8125 C-8 7 -8 7 -5.5 4.0625 C-4.675 3.381875 -3.85 2.70125 -3 2 C-2.93941406 2.71027344 -2.87882813 3.42054687 -2.81640625 4.15234375 C-2.73261719 5.07144531 -2.64882812 5.99054687 -2.5625 6.9375 C-2.48128906 7.85402344 -2.40007813 8.77054688 -2.31640625 9.71484375 C-2.23955024 11.96159732 -2.23955024 11.96159732 -1 13 C-1.33 12.34 -1.66 11.68 -2 11 C-2.25765477 6.3622141 -2.12087964 4.24175928 0 0 Z M1 5 C1.33 6.32 1.66 7.64 2 9 C2.66 8.67 3.32 8.34 4 8 C3.01 7.01 2.02 6.02 1 5 Z M4 9 C4.33 9.66 4.66 10.32 5 11 C5.99 10.67 6.98 10.34 8 10 C6.68 9.67 5.36 9.34 4 9 Z M8 11 C8.99 12.98 9.98 14.96 11 17 C11.33 15.68 11.66 14.36 12 13 C10.68 12.34 9.36 11.68 8 11 Z " fill="#49ABCD" transform="translate(12,5)"/>
<path d="M0 0 C1.05960938 0.00676758 1.05960938 0.00676758 2.140625 0.01367188 C3.88545275 0.02546125 5.630237 0.04339676 7.375 0.0625 C7.375 0.7225 7.375 1.3825 7.375 2.0625 C6.385 2.3925 5.395 2.7225 4.375 3.0625 C4.436875 4.320625 4.49875 5.57875 4.5625 6.875 C4.58326011 10.78481986 4.58326011 10.78481986 2.875 13.0625 C2.38 13.3925 1.885 13.7225 1.375 14.0625 C1.313125 13.44375 1.25125 12.825 1.1875 12.1875 C0.57668101 9.8457089 0.57668101 9.8457089 -1.8125 9.0625 C-3.2046875 8.5675 -3.2046875 8.5675 -4.625 8.0625 C-6.64818078 6.76461044 -8.65366014 5.43785339 -10.625 4.0625 C-10.295 3.0725 -9.965 2.0825 -9.625 1.0625 C-6.55966836 -0.47016582 -3.35745728 -0.04026471 0 0 Z " fill="#2B4791" transform="translate(24.625,7.9375)"/>
<path d="M0 0 C3.63 0 7.26 0 11 0 C11 0.66 11 1.32 11 2 C6.545 2.495 6.545 2.495 2 3 C1.32845316 5.28341743 1.32845316 5.28341743 2 8 C3.96347921 9.46711869 5.96965207 10.57888792 8.15234375 11.69140625 C10 13 10 13 10.75390625 15.15234375 C10.87572266 16.06693359 10.87572266 16.06693359 11 17 C9.35 17 7.7 17 6 17 C6 16.01 6 15.02 6 14 C4.576875 14.0928125 4.576875 14.0928125 3.125 14.1875 C2.09375 14.125625 1.0625 14.06375 0 14 C-2.46751239 10.29873141 -2.30721156 8.37776468 -2 4 C-1.34 2.68 -0.68 1.36 0 0 Z " fill="#39A4CA" transform="translate(12,5)"/>
<path d="M0 0 C0.99 0.99 1.98 1.98 3 3 C2.04426899 5.38932753 1.4224035 6.7353061 -0.7890625 8.12109375 C-3.23851749 9.09481702 -5.00015881 9.23578303 -7.625 9.1875 C-8.78902344 9.17783203 -8.78902344 9.17783203 -9.9765625 9.16796875 C-12 9 -12 9 -14 8 C-13.34 6.02 -12.68 4.04 -12 2 C-10.02 1.67 -8.04 1.34 -6 1 C-6 1.99 -6 2.98 -6 4 C-4.35 4 -2.7 4 -1 4 C-0.67 2.68 -0.34 1.36 0 0 Z " fill="#7FADCD" transform="translate(24,18)"/>
<path d="M0 0 C3.63 0 7.26 0 11 0 C11 0.66 11 1.32 11 2 C6.545 2.495 6.545 2.495 2 3 C1.34 6.3 0.68 9.6 0 13 C-2 11 -2 11 -2.25 7.625 C-2 4 -2 4 0 0 Z " fill="#44A9CC" transform="translate(12,5)"/>
<path d="M0 0 C4.29 0 8.58 0 13 0 C13 0.66 13 1.32 13 2 C10.63386544 3.18306728 9.13219264 3.13354608 6.5 3.125 C5.7059375 3.12757812 4.911875 3.13015625 4.09375 3.1328125 C2 3 2 3 0 2 C0 1.34 0 0.68 0 0 Z " fill="#41599B" transform="translate(10,24)"/>
<path d="M0 0 C2.64 0 5.28 0 8 0 C8 0.66 8 1.32 8 2 C7.01 2.33 6.02 2.66 5 3 C5.04125 4.27875 5.0825 5.5575 5.125 6.875 C5.1953125 9.0546875 5.1953125 9.0546875 5 11 C4.34 11.66 3.68 12.32 3 13 C1.875 5.375 1.875 5.375 3 2 C2.01 1.34 1.02 0.68 0 0 Z " fill="#8495BF" transform="translate(24,8)"/>
<path d="M0 0 C2.83022097 3.99560608 1.76210446 7.42737323 1 12 C-1 10 -1 10 -1.1875 6.5625 C-1 3 -1 3 0 0 Z " fill="#7AC1DB" transform="translate(11,6)"/>
<path d="M0 0 C1.10773342 3.32320026 0.93312508 4.69164744 0 8 C-0.66 8.66 -1.32 9.32 -2 10 C-2.25 3.375 -2.25 3.375 0 0 Z " fill="#88C8DF" transform="translate(6,9)"/>
</svg>
